<svg width="31" height="40" viewBox="0 0 31 40" fill="none" xmlns="http://www.w3.org/2000/svg">
<path d="M13.5738 37.3915C13.5738 37.3915 12.3648 33.4395 15.1099 35.1241C17.8551 36.8087 16.1408 38.9278 16.1408 38.9278L13.5738 37.3915Z" fill="url(#paint0_linear_71_1010)"/>
<path d="M30.1316 11.5124L30.1301 11.5113L27.8824 10.2123C27.8824 10.2123 26.7671 11.0309 27.7653 11.9772C28.7635 12.9234 30.1316 11.5124 30.1316 11.5124Z" fill="url(#paint1_linear_71_1010)"/>
<path d="M26.4019 4.61617C26.3521 4.57849 20.0071 0.916278 20.0071 0.916278V0.916802C19.2514 0.555106 18.1543 1.24628 17.4481 2.56758L14.925 1.11031L14.925 1.11054C14.5783 0.884064 14.1153 0.890507 13.6063 1.18433L11.1686 2.59178C10.0943 3.21194 9.22352 4.87583 9.22352 6.30808C9.22352 7.61275 8.04044 8.94926 7.34859 8.42619L7.34851 8.42612C6.58893 7.85188 5.35738 8.56292 4.59781 10.0142L2.87406 13.3077C2.11448 14.7591 2.11448 16.4011 2.87406 16.9753C3.56598 17.4984 3.07595 19.3587 2.0974 19.9237L2.09732 19.9238C1.0231 20.5439 0.152344 22.2077 0.152344 23.6401V26.8905C0.152344 27.673 0.412678 28.2238 0.823819 28.462L0.823594 28.4623L3.11783 29.7878C3.06479 29.9903 2.98471 30.2009 2.87406 30.4124V30.4125C2.11448 31.8639 2.11448 33.5058 2.87406 34.08L10.9474 39.0599L10.9475 39.0595C11.7041 39.4715 26.4019 4.61617 26.4019 4.61617Z" fill="url(#paint2_linear_71_1010)"/>
<path d="M7.09702 32.0851L10.2346 23.0266L2.97452 18.835C2.78243 19.2903 2.47692 19.7046 2.0974 19.9237L2.09732 19.9238C1.0231 20.5439 0.152344 22.2078 0.152344 23.6401V26.8904C0.152344 27.673 0.412678 28.2238 0.823819 28.4619L0.823594 28.4623L3.11776 29.7878L7.09702 32.0851Z" fill="url(#paint3_linear_71_1010)"/>
<path d="M16.9085 12.0227C18.6555 9.63739 21.1926 4.73658 21.1926 4.73658L17.4479 2.5676L17.4478 2.56753L14.9248 1.11026L14.9248 1.11048C14.5781 0.884008 14.1151 0.890451 13.6062 1.18435L11.1684 2.5918C10.0942 3.21203 9.22333 4.87585 9.22333 6.3081C9.22333 7.53905 8.17031 8.79757 7.47021 8.49656L13.5734 12.0228C13.5734 12.0227 15.1615 14.4081 16.9085 12.0227Z" fill="url(#paint4_linear_71_1010)"/>
<path d="M7.09684 32.0851L3.11766 29.7877C3.06462 29.9903 2.98453 30.201 2.87388 30.4123V30.4124C2.1143 31.8637 2.1143 33.5057 2.87388 34.0799L10.9472 39.0597L9.85819 31.4951L7.09684 32.0851Z" fill="url(#paint5_linear_71_1010)"/>
<path d="M26.4016 4.61625C26.3518 4.57856 20.0068 0.916278 20.0068 0.916278V0.916802C19.2511 0.555106 18.154 1.24628 17.4478 2.56758L21.1925 4.73656C21.1925 4.73656 20.4906 7.48487 22.6431 7.93722C24.7956 8.38964 26.4015 4.6164 26.4016 4.61625Z" fill="url(#paint6_linear_71_1010)"/>
<path d="M28.9027 11.6385C27.9242 12.2035 27.4342 10.909 28.1261 9.58703C28.8857 8.13575 28.8857 6.49358 28.1261 5.91943L26.4023 4.61633C25.6427 4.0421 24.4113 4.75313 23.6517 6.20441L23.6516 6.20456C22.9597 7.52653 21.7767 7.5562 21.7767 6.25153V6.25138C21.7767 4.81913 20.9059 4.16084 19.8317 4.781L17.3939 6.18845C16.3197 6.80868 15.449 8.4725 15.449 9.90475C15.449 11.2094 14.2659 12.5459 13.574 12.0229C12.8144 11.4486 11.5829 12.1597 10.8233 13.6109L9.09957 16.9045C8.33999 18.3558 8.33999 19.9978 9.09957 20.572C9.79149 21.0951 9.30154 22.9554 8.32298 23.5203H8.32291C7.24868 24.1405 6.37793 25.8044 6.37793 27.2367V30.487C6.37793 31.9193 7.24876 32.5777 8.32298 31.9574C9.30147 31.3925 9.79149 32.687 9.09964 34.0089V34.009C8.34006 35.4604 8.34006 37.1023 9.09964 37.6765L10.8234 38.9797C11.583 39.5539 12.8144 38.8429 13.5741 37.3916V37.3916C14.266 36.0696 15.449 36.0399 15.449 37.3446C15.449 38.7768 16.3199 39.4353 17.394 38.815L19.8318 37.4076C20.906 36.7874 21.7768 35.1235 21.7768 33.6913V33.6911C21.7768 32.3865 22.9598 31.05 23.6517 31.5731L23.6518 31.5732C24.4114 32.1474 25.6428 31.4364 26.4024 29.9851L28.1262 26.6916C28.8857 25.2403 28.8857 23.5983 28.1262 23.024C27.4342 22.501 27.9243 20.6406 28.9028 20.0757H28.9029C29.9771 19.4555 30.8479 17.7916 30.8479 16.3594V13.109C30.8478 11.6767 29.977 11.0184 28.9027 11.6385Z" fill="url(#paint7_linear_71_1010)"/>
<path d="M25.5712 17.7805C25.5712 22.9044 22.4559 28.8567 18.613 31.0754C14.7701 33.2942 11.6548 30.939 11.6548 25.8151C11.6548 20.6912 14.7701 14.7389 18.613 12.5202C22.4559 10.3015 25.5712 12.6566 25.5712 17.7805Z" fill="url(#paint8_linear_71_1010)"/>
<path d="M15.7263 27.9019L21.4032 15.6423L17.4216 13.3435C14.2084 15.9374 11.7494 21.0334 11.6567 25.5523L15.7263 27.9019Z" fill="url(#paint9_linear_71_1010)"/>
<path d="M23.0173 19.2546C23.0173 22.4985 21.0451 26.2668 18.6122 27.6714C16.1793 29.0761 14.207 27.5851 14.207 24.3412C14.207 21.0973 16.1793 17.3289 18.6122 15.9243C21.0451 14.5197 23.0173 16.0107 23.0173 19.2546Z" fill="url(#paint10_linear_71_1010)"/>
<defs>
<linearGradient id="paint0_linear_71_1010" x1="15.0427" y1="36.5699" x2="13.6524" y2="38.978" gradientUnits="userSpaceOnUse">
<stop stop-color="#7662BD"/>
<stop offset="0.556" stop-color="#A996EB"/>
<stop offset="0.9916" stop-color="#D7D1EB"/>
</linearGradient>
<linearGradient id="paint1_linear_71_1010" x1="28.146" y1="12.2388" x2="29.8555" y2="9.27777" gradientUnits="userSpaceOnUse">
<stop stop-color="#7662BD"/>
<stop offset="0.556" stop-color="#A996EB"/>
<stop offset="0.9916" stop-color="#D7D1EB"/>
</linearGradient>
<linearGradient id="paint2_linear_71_1010" x1="9.82038" y1="21.0912" x2="13.0072" y2="15.5713" gradientUnits="userSpaceOnUse">
<stop stop-color="#7662BD"/>
<stop offset="0.3583" stop-color="#A996EB"/>
<stop offset="0.9916" stop-color="#D7D1EB"/>
</linearGradient>
<linearGradient id="paint3_linear_71_1010" x1="2.56285" y1="29.1094" x2="6.85983" y2="21.6668" gradientUnits="userSpaceOnUse">
<stop stop-color="#7662BD"/>
<stop offset="0.6623" stop-color="#A996EB"/>
<stop offset="1" stop-color="#7662BD"/>
</linearGradient>
<linearGradient id="paint4_linear_71_1010" x1="12.0408" y1="10.5106" x2="15.4791" y2="4.55543" gradientUnits="userSpaceOnUse">
<stop stop-color="#7662BD"/>
<stop offset="0.556" stop-color="#A996EB"/>
<stop offset="0.9916" stop-color="#D7D1EB"/>
</linearGradient>
<linearGradient id="paint5_linear_71_1010" x1="8.48602" y1="31.906" x2="4.69952" y2="38.4645" gradientUnits="userSpaceOnUse">
<stop stop-color="#7662BD"/>
<stop offset="0.556" stop-color="#A996EB"/>
<stop offset="0.9916" stop-color="#D7D1EB"/>
</linearGradient>
<linearGradient id="paint6_linear_71_1010" x1="20.4231" y1="6.24141" x2="22.8593" y2="2.02174" gradientUnits="userSpaceOnUse">
<stop stop-color="#7662BD"/>
<stop offset="0.556" stop-color="#A996EB"/>
<stop offset="0.9916" stop-color="#D7D1EB"/>
</linearGradient>
<linearGradient id="paint7_linear_71_1010" x1="18.6128" y1="41.0825" x2="18.6128" y2="0.396741" gradientUnits="userSpaceOnUse">
<stop stop-color="#DFDAEF"/>
<stop offset="1" stop-color="white"/>
</linearGradient>
<linearGradient id="paint8_linear_71_1010" x1="23.9275" y1="12.5928" x2="13.2985" y2="31.0028" gradientUnits="userSpaceOnUse">
<stop stop-color="#7662BD"/>
<stop offset="0.556" stop-color="#A996EB"/>
<stop offset="0.9916" stop-color="#D7D1EB"/>
</linearGradient>
<linearGradient id="paint9_linear_71_1010" x1="13.8926" y1="24.3887" x2="19.0693" y2="15.4224" gradientUnits="userSpaceOnUse">
<stop stop-color="#7662BD"/>
<stop offset="0.556" stop-color="#A996EB"/>
<stop offset="0.9916" stop-color="#D7D1EB"/>
</linearGradient>
<linearGradient id="paint10_linear_71_1010" x1="14.3768" y1="21.7979" x2="27.0532" y2="21.7979" gradientUnits="userSpaceOnUse">
<stop stop-color="#8A2F40"/>
<stop offset="1" stop-color="#DA062D"/>
</linearGradient>
</defs>
</svg>
