<svg width="50" height="34" viewBox="0 0 50 34" fill="none" xmlns="http://www.w3.org/2000/svg">
<path d="M33.1476 2.06277L30.9709 0.801941L30.9693 0.803372C30.9463 0.789345 30.9245 0.773981 30.9012 0.760431C29.8092 0.128536 28.4786 0.173672 27.2509 0.884005L4.02349 14.3239C2.08597 15.4449 0.625 18.161 0.625 20.6419C0.625 22.3288 1.30597 23.6904 2.49349 24.3773L4.83624 25.7333L33.1476 2.06277Z" fill="url(#paint0_linear_71_997)"/>
<path d="M33.244 2.11651C32.152 1.48461 30.8215 1.52975 29.5937 2.24008L6.36626 15.6799C4.42874 16.801 2.96777 19.5171 2.96777 21.9979C2.96777 23.6848 3.64875 25.0464 4.83626 25.7334C5.34804 26.0295 5.91199 26.1769 6.49337 26.1769C7.15254 26.1769 7.83418 25.9872 8.48659 25.6097L31.714 12.1699C33.6515 11.0487 35.1125 8.3327 35.1125 5.85187C35.1123 4.16516 34.4314 2.80356 33.244 2.11651Z" fill="#E9E5F6"/>
<path d="M13.5894 22.6577L9.51745 21.2251L9.27246 22.702V25.1555L13.5894 22.6577Z" fill="url(#paint1_linear_71_997)"/>
<path d="M30.6542 4.08036L7.42684 17.5202C6.13536 18.2675 5.08838 20.2722 5.08838 21.998C5.08838 23.7237 6.13536 24.517 7.42675 23.7696L30.6542 10.3298C31.9457 9.58258 32.9927 7.57782 32.9927 5.85209C32.9927 4.12635 31.9457 3.33309 30.6542 4.08036Z" fill="#221C36"/>
<path d="M48.3955 20.7751L5.54247 19.8845L5.54237 19.8846C5.4543 20.0953 5.37775 20.3114 5.31348 20.5295L27.7795 33.5288C28.1738 33.7569 28.8624 33.7283 29.3176 33.4649L48.9978 22.0775C49.2491 21.9321 49.3761 21.7456 49.3738 21.5692H49.3745V20.7954L48.3955 20.7751Z" fill="url(#paint2_linear_71_997)"/>
<path d="M48.5438 20.2561L25.6633 6.96118L9.3878 16.3784V16.3852L7.42638 17.5202C6.67714 17.9537 6.01178 18.8112 5.58398 19.7913L27.4174 32.4802L48.5438 20.2561Z" fill="url(#paint3_linear_71_997)"/>
<path d="M49.1088 20.41L25.7645 6.90259L24.1132 7.85797L42.4626 18.4754C41.5979 18.6187 40.7575 18.8971 40.048 19.3077C38.0721 20.4509 37.8575 22.1804 39.5687 23.1706C40.1832 23.5262 40.9628 23.7372 41.8007 23.8098L33.6555 28.5227C33.5301 28.0379 33.1652 27.5867 32.5508 27.2313C30.8396 26.2411 27.8507 26.3653 25.8747 27.5086C25.1651 27.9191 24.684 28.4054 24.4364 28.9057L6.37952 18.4576C6.04789 18.8721 5.7612 19.362 5.54297 19.8845L27.78 32.7512C28.1743 32.9794 28.8629 32.9508 29.3181 32.6874L48.9984 21.3C49.4536 21.0366 49.503 20.6382 49.1088 20.41Z" fill="url(#paint4_linear_71_997)"/>
<path d="M28.6207 20.8171C32.6485 18.4864 33.0859 14.961 29.5978 12.9426C26.1096 10.9243 20.0166 11.1774 15.9888 13.508C11.9609 15.8386 11.5234 19.364 15.0117 21.3824C18.4998 23.4007 24.5928 23.1477 28.6207 20.8171Z" fill="url(#paint5_linear_71_997)"/>
<path d="M35.7541 12.6828L25.7645 6.90259L25.6634 6.96108L25.0465 7.31806L24.1133 7.85797L9.38792 16.3784V16.3852L7.4265 17.5201C7.00194 17.7657 6.60442 18.1477 6.26174 18.6107C6.2466 18.6311 6.23213 18.6521 6.21718 18.6728C6.195 18.7036 6.17262 18.7344 6.15091 18.7659C6.12559 18.8027 6.10102 18.8403 6.07636 18.8778C6.06608 18.8935 6.05551 18.9091 6.04532 18.925C6.01457 18.9728 5.98467 19.0216 5.95515 19.0706C5.95182 19.0763 5.9483 19.0817 5.94496 19.0874C5.79424 19.3398 5.65875 19.6073 5.54297 19.8844L14.1317 24.854L35.7541 12.6828Z" fill="url(#paint6_linear_71_997)"/>
<defs>
<linearGradient id="paint0_linear_71_997" x1="8.20835" y1="25.4222" x2="23.5761" y2="-1.13705" gradientUnits="userSpaceOnUse">
<stop stop-color="#7662BD"/>
<stop offset="0.2216" stop-color="#E9E5F6"/>
<stop offset="0.3753" stop-color="#A996EB"/>
<stop offset="0.437" stop-color="#BBACEF"/>
<stop offset="0.5523" stop-color="#D9D1F5"/>
<stop offset="0.646" stop-color="#EBE7F9"/>
<stop offset="0.7058" stop-color="#F2EFFA"/>
<stop offset="0.7637" stop-color="#E9E4F8"/>
<stop offset="0.8662" stop-color="#D0C6F3"/>
<stop offset="1" stop-color="#A996EB"/>
</linearGradient>
<linearGradient id="paint1_linear_71_997" x1="11.5512" y1="21.9516" x2="10.9259" y2="24.8087" gradientUnits="userSpaceOnUse">
<stop stop-color="#7662BD"/>
<stop offset="1" stop-color="#7662BD" stop-opacity="0"/>
</linearGradient>
<linearGradient id="paint2_linear_71_997" x1="27.4584" y1="26.7837" x2="29.9146" y2="26.7837" gradientUnits="userSpaceOnUse">
<stop stop-color="#4E1A24"/>
<stop offset="1" stop-color="#682330"/>
</linearGradient>
<linearGradient id="paint3_linear_71_997" x1="6.3816" y1="19.7207" x2="50.0877" y2="19.7207" gradientUnits="userSpaceOnUse">
<stop stop-color="#DA062D"/>
<stop offset="1" stop-color="#F09BAB"/>
</linearGradient>
<linearGradient id="paint4_linear_71_997" x1="6.38743" y1="19.904" x2="69.4537" y2="19.904" gradientUnits="userSpaceOnUse">
<stop stop-color="#8A2F40"/>
<stop offset="1" stop-color="#DA062D"/>
</linearGradient>
<linearGradient id="paint5_linear_71_997" x1="6.03496" y1="7.73838" x2="30.4483" y2="49.9563" gradientUnits="userSpaceOnUse">
<stop stop-color="#8A2F40"/>
<stop offset="1" stop-color="#DA062D"/>
</linearGradient>
<linearGradient id="paint6_linear_71_997" x1="18.4141" y1="12.4047" x2="22.0342" y2="18.6613" gradientUnits="userSpaceOnUse">
<stop stop-color="#F25975"/>
<stop offset="1" stop-color="#F25975" stop-opacity="0"/>
</linearGradient>
</defs>
</svg>
