<svg width="21" height="44" viewBox="0 0 21 44" fill="none" xmlns="http://www.w3.org/2000/svg">
<path d="M3.37296 9.45268C2.35218 8.86203 0.36377 9.99916 0.36377 11.1805V17.5948L4.41011 15.2535L5.17826 13.4433C5.17826 12.937 3.99784 9.81428 3.37296 9.45268Z" fill="url(#paint0_linear_71_983)"/>
<path d="M18.8867 0.457597C18.5221 0.246636 18.1252 0.205939 17.7653 0.29362L17.7382 0.249695L17.5261 0.37238C17.409 0.422252 17.2982 0.486314 17.1967 0.563034L1.25684 9.78615C1.68199 9.58981 2.19725 9.58361 2.66038 9.85158C3.74305 10.4781 4.41006 11.6359 4.41006 12.8888V43.7491L4.41642 43.7502L5.01833 42.1139L6.73308 42.4096L7.3349 40.7735L9.04974 41.0692L9.65191 39.4329L11.3667 39.7286L11.9688 38.0923L13.6838 38.3879L14.2861 36.7515L16.0009 37.0473L16.6032 35.4108L18.3184 35.7062L18.9209 34.0697L20.6364 34.365V3.49481C20.6364 2.2418 19.9693 1.08402 18.8867 0.457597Z" fill="url(#paint1_linear_71_983)"/>
<path d="M12.5204 13.5327L6.25586 17.1575V16.012L12.5204 12.3871V13.5327Z" fill="#FF0000"/>
<path d="M12.5204 19.4071L6.25586 23.0319V21.8863L12.5204 18.2615V19.4071Z" fill="#FF0000"/>
<path d="M12.5204 24.4004L6.25586 28.0252V26.8797L12.5204 23.2549V24.4004Z" fill="#FF0000"/>
<path d="M12.5204 29.4084L6.25586 33.0332V31.8877L12.5204 28.2629V29.4084Z" fill="#FF0000"/>
<path d="M18.7846 15.7823L15.6523 17.5947V16.4492L18.7846 14.6368V15.7823Z" fill="#FF0000"/>
<path d="M18.7846 20.7756L15.6523 22.588V21.4424L18.7846 19.6301V20.7756Z" fill="#FF0000"/>
<path d="M18.7846 25.7836L15.6523 27.596V26.4505L18.7846 24.6381V25.7836Z" fill="#FF0000"/>
<defs>
<linearGradient id="paint0_linear_71_983" x1="2.77106" y1="7.90094" x2="2.77106" y2="20.0532" gradientUnits="userSpaceOnUse">
<stop stop-color="#C5BAEB"/>
<stop offset="1" stop-color="#E9E5F6"/>
</linearGradient>
<linearGradient id="paint1_linear_71_983" x1="10.9466" y1="54.9718" x2="10.9466" y2="6.69762" gradientUnits="userSpaceOnUse">
<stop stop-color="#C5BAEB"/>
<stop offset="1" stop-color="#E9E5F6"/>
</linearGradient>
</defs>
</svg>
