<svg width="27" height="42" viewBox="0 0 27 42" fill="none" xmlns="http://www.w3.org/2000/svg">
<path d="M23.5632 3.13124C23.5632 3.13124 20.7666 0.916047 18.3925 0.520272C16.5712 0.216612 14.4018 0.655077 12.068 2.00262C9.73079 3.35206 7.55523 5.40768 5.73555 7.83366C2.57698 12.0446 0.490234 17.384 0.490234 22.0687C0.490234 24.2381 0.540038 35.2157 14.8658 41.5711C22.2215 28.3893 22.0618 18.0081 23.0602 13.2063C23.3512 12.0182 23.5337 10.8384 23.6032 9.68599C23.657 9.0206 23.6459 8.68709 23.6459 8.68709C23.6459 6.27343 23.5632 3.13124 23.5632 3.13124Z" fill="#8A2F40"/>
<path d="M5.78779 7.86369C2.62922 12.0747 0.542471 17.4137 0.542471 22.0985C0.542471 24.2296 0.578538 35.1828 14.8658 41.5711C22.1915 28.4431 22.0877 18.1133 23.0949 13.3059C23.3862 12.1199 23.5589 10.9432 23.6419 9.79683C23.6895 9.13779 23.6861 8.8058 23.6871 8.80097C23.6872 8.76095 23.6874 8.72067 23.6875 8.68027C23.6912 7.23172 23.665 5.55142 23.6433 4.4458C23.6293 3.7301 23.617 3.26215 23.617 3.26215C23.617 3.20002 20.8511 0.980127 18.4869 0.567708C16.6602 0.24194 14.4741 0.673546 12.1203 2.03252C9.78302 3.38209 7.60747 5.43771 5.78779 7.86369Z" fill="#8A2F40"/>
<path d="M5.83945 7.89375C2.68087 12.1047 0.59413 17.4436 0.59413 22.1283C0.59413 24.2203 0.616272 35.1496 14.8658 41.5711C22.1616 28.4969 22.113 18.2187 23.129 13.4058C23.4208 12.2217 23.5953 11.0489 23.6799 9.90782C23.7282 9.25578 23.7257 8.9248 23.7277 8.91514C23.728 8.87525 23.7282 8.8351 23.7285 8.79482C23.7375 7.3511 23.7151 5.67995 23.6952 4.57369C23.6825 3.85888 23.6702 3.39348 23.6702 3.39348C23.6702 3.26922 20.9333 1.05313 18.5806 0.615559C16.7472 0.274544 14.5459 0.6923 12.172 2.06284C9.83468 3.41203 7.65913 5.46777 5.83945 7.89375Z" fill="#8A2F40"/>
<path d="M5.89183 7.92383C2.73325 12.1348 0.646506 17.4735 0.646506 22.1581C0.646379 24.2108 0.654006 35.1163 14.8658 41.5711C22.1314 28.5507 22.1391 18.3241 23.1639 13.5055C23.456 12.3235 23.6325 11.1546 23.7187 10.0187C23.7678 9.37352 23.766 9.04356 23.769 9.02921C23.7694 8.98944 23.7698 8.94942 23.7702 8.90927C23.7845 7.47037 23.7661 5.8085 23.7477 4.70135C23.7363 3.98743 23.7239 3.52444 23.7239 3.52444C23.7239 3.33792 21.0169 1.1212 18.675 0.662916C16.8355 0.302971 14.6182 0.710563 12.2244 2.09279C9.88706 3.44224 7.7115 5.49785 5.89183 7.92383Z" fill="#8A2F40"/>
<path d="M5.94314 7.95386C2.78457 12.1648 0.697824 17.5033 0.697824 22.1879C0.697697 24.2015 0.691742 35.0832 14.8658 41.5711C22.1015 28.6045 22.1639 18.4295 23.1977 13.6052C23.4901 12.4254 23.6685 11.2603 23.7565 10.1297C23.8061 9.49135 23.8052 9.1624 23.8093 9.14322C23.8098 9.10345 23.8103 9.06368 23.8108 9.02353C23.8305 7.58947 23.8159 5.93687 23.7993 4.82882C23.7891 4.11592 23.7768 3.65535 23.7768 3.65535C23.7768 3.4067 21.0995 1.18896 18.7684 0.71035C16.9227 0.331346 14.6895 0.729027 12.2757 2.12269C9.93838 3.47226 7.76282 5.52788 5.94314 7.95386Z" fill="#8A2F40"/>
<path d="M5.99586 7.98405C2.83729 12.195 0.750541 17.5332 0.750541 22.2178C0.750414 24.1923 0.72935 35.05 14.8658 41.5711C22.0715 28.6583 22.1904 18.535 23.2328 13.7052C23.5257 12.5274 23.706 11.3661 23.7956 10.2408C23.8459 9.60946 23.8459 9.28153 23.851 9.25752C23.8516 9.21788 23.8522 9.17811 23.8529 9.13822C23.8779 7.70898 23.8671 6.06566 23.8522 4.95672C23.8433 4.24471 23.831 3.78668 23.831 3.78668C23.831 3.4759 21.1835 1.25689 18.8632 0.758205C17.0112 0.360143 14.7621 0.747787 12.3284 2.15301C9.99097 3.50233 7.81554 5.55807 5.99586 7.98405Z" fill="#8A2F40"/>
<path d="M6.04806 8.01397C2.88948 12.2249 0.802737 17.5629 0.802737 22.2476C0.80261 24.1828 0.767085 35.0167 14.8658 41.5711C22.0414 28.7122 22.2161 18.6403 23.2674 13.8049C23.5606 12.6291 23.7428 11.4718 23.834 10.3516C23.885 9.72718 23.8859 9.40026 23.892 9.37142C23.8927 9.33191 23.8935 9.29227 23.8943 9.2525C23.9245 7.82809 23.9178 6.19404 23.9044 5.08422C23.8968 4.3731 23.8845 3.91761 23.8845 3.91761C23.8845 3.5447 21.2667 1.3243 18.9573 0.805659C17.0991 0.388285 14.8343 0.766273 12.3803 2.18293C10.0432 3.53238 7.86773 5.58799 6.04806 8.01397Z" fill="#8A2F40"/>
<path d="M6.0994 8.04414C2.94082 12.2551 0.854078 17.5928 0.854078 22.2776C0.853951 24.1736 0.80482 34.9836 14.8658 41.5711C22.0114 28.7659 22.2412 18.7458 23.3012 13.9047C23.5948 12.7309 23.7789 11.5775 23.8719 10.4626C23.9234 9.84501 23.9253 9.51925 23.9324 9.48558C23.9333 9.44619 23.9342 9.40668 23.9351 9.36703C23.9706 7.94745 23.9677 6.32268 23.9562 5.21197C23.9498 4.50186 23.9375 4.04878 23.9375 4.04878C23.9375 3.61375 21.3494 1.39169 19.0508 0.853235C17.1863 0.416421 14.9057 0.784753 12.4318 2.21297C10.0945 3.56255 7.91907 5.61816 6.0994 8.04414Z" fill="#8A2F40"/>
<path d="M6.15186 8.07422C2.99328 12.2852 0.906537 17.6227 0.906537 22.3074C0.90641 24.1643 0.842555 34.9504 14.8658 41.5711C21.9814 28.8198 22.2672 18.8512 23.3361 14.0044C23.6301 12.8327 23.816 11.6831 23.9108 10.5735C23.9629 9.96288 23.9657 9.63801 23.9738 9.59964C23.9748 9.56038 23.9758 9.52099 23.9769 9.48147C24.0178 8.06672 24.0187 6.45122 24.0087 5.33962C24.0037 4.63041 23.9915 4.17987 23.9915 4.17987C23.9915 3.68271 21.4331 1.45887 19.1453 0.900846C17.2746 0.444593 14.9781 0.803269 12.4843 2.24318C10.147 3.5925 7.97153 5.64824 6.15186 8.07422Z" fill="#8A2F40"/>
<path d="M6.20432 8.10426C3.04575 12.3152 0.959002 17.6525 0.959002 22.3372C0.958748 24.1548 0.880292 34.9171 14.8658 41.5711C21.9513 28.8735 22.2934 18.9565 23.371 14.1042C23.6654 12.9345 23.8532 11.7888 23.9497 10.6845C24.0024 10.0807 24.0061 9.75686 24.0152 9.71366C24.0164 9.67453 24.0175 9.63527 24.0186 9.59575C24.0649 8.18583 24.0696 6.57961 24.0615 5.46712C24.0577 4.75879 24.0455 4.31079 24.0455 4.31079C24.0455 3.75137 21.5168 1.5255 19.24 0.948294C17.3629 0.472347 15.0506 0.821748 12.5368 2.27309C10.1996 3.62267 8.024 5.67828 6.20432 8.10426Z" fill="#8A2F40"/>
<path d="M6.25679 8.13439C3.09821 12.3454 1.01147 17.6824 1.01147 22.367C1.01121 24.1456 0.917773 34.884 14.8658 41.5711C21.9213 28.9274 22.3195 19.062 23.4061 14.2039C23.7009 13.0363 23.8904 11.8946 23.9886 10.7954C24.0419 10.1985 24.0466 9.8758 24.0567 9.82777C24.058 9.78877 24.0593 9.74951 24.0606 9.71025C24.1121 8.30515 24.1208 6.7082 24.1142 5.59482C24.1115 4.88751 24.0994 4.44193 24.0994 4.44193C24.0994 3.82038 21.6005 1.59222 19.3345 0.995828C17.4511 0.500061 15.123 0.840186 12.5893 2.30309C10.252 3.65279 8.07646 5.70841 6.25679 8.13439Z" fill="#8A2F40"/>
<path d="M6.308 8.16452C3.14942 12.3755 1.06268 17.7123 1.06268 22.3969C1.06242 24.1363 0.955507 34.8507 14.8658 41.5711C21.8912 28.9811 22.3444 19.1676 23.4398 14.3039C23.7349 13.1383 23.9264 12.0006 24.0263 10.9066C24.0801 10.3167 24.0857 9.99487 24.0969 9.94214C24.0983 9.90326 24.0997 9.86413 24.1011 9.825C24.158 8.42473 24.1705 6.83705 24.1656 5.72279C24.1642 5.01636 24.1522 4.57332 24.1522 4.57332C24.1522 3.88964 21.683 1.65907 19.4278 1.04375C17.538 0.528161 15.1943 0.859011 12.6404 2.33348C10.3032 3.6828 8.12768 5.73854 6.308 8.16452Z" fill="#D40000"/>
<path d="M6.36039 8.19453C3.20181 12.4055 1.11507 17.7421 1.11507 22.4267C1.11481 24.1268 0.993243 34.8174 14.8658 41.5711C21.8612 29.035 22.3705 19.2729 23.4746 14.4037C23.7702 13.2401 23.9634 12.1063 24.0651 11.0176C24.1194 10.4345 24.126 10.1138 24.1382 10.0561C24.1398 10.0173 24.1413 9.97838 24.1428 9.93937C24.2051 8.54393 24.2213 6.96554 24.2183 5.85038C24.2182 5.14484 24.2061 4.70434 24.2061 4.70434C24.2061 3.95853 21.7666 1.7253 19.5224 1.09129C17.6262 0.555631 15.2668 0.877587 12.6929 2.36362C10.3556 3.71294 8.18006 5.76855 6.36039 8.19453Z" fill="#D50000"/>
<path d="M6.41206 8.22454C3.25348 12.4355 1.16674 17.7718 1.16674 22.4566C1.16649 24.1175 1.03098 34.7842 14.8658 41.5711C21.8312 29.0888 22.3958 19.3784 23.5088 14.5034C23.8047 13.342 23.9997 12.2119 24.1031 11.1285C24.1582 10.5523 24.1658 10.2326 24.1789 10.1702C24.1805 10.1315 24.1822 10.0927 24.1838 10.0539C24.2514 8.66313 24.2715 7.09413 24.2701 5.97821C24.2712 5.27369 24.2592 4.83561 24.2592 4.83561C24.2592 4.02767 21.8494 1.79164 19.6159 1.13908C17.7136 0.58322 15.3383 0.896283 12.7445 2.39387C10.4073 3.74294 8.23173 5.79856 6.41206 8.22454Z" fill="#D60000"/>
<path d="M6.46446 8.2547C3.30589 12.4657 1.21914 17.8018 1.21914 22.4865C1.21876 24.1083 1.06871 34.7511 14.8658 41.5711C21.8012 29.1426 22.4219 19.4838 23.5436 14.6032C23.8399 13.4439 24.0367 12.3177 24.142 11.2395C24.1975 10.6703 24.2061 10.3515 24.2202 10.2843C24.222 10.2457 24.2238 10.207 24.2256 10.1681C24.2984 8.78224 24.3225 7.22239 24.3227 6.1057C24.3252 5.40208 24.3131 4.96641 24.3131 4.96641C24.3131 4.09634 21.9331 1.85725 19.7105 1.18628C17.8018 0.610085 15.4108 0.914381 12.797 2.42354C10.4596 3.77298 8.28414 5.82872 6.46446 8.2547Z" fill="#D70000"/>
<path d="M6.51581 8.28474C3.35723 12.4957 1.27048 17.8316 1.27048 22.5163C1.2701 24.0988 1.10531 34.7178 14.8648 41.5711C21.7701 29.1964 22.4468 19.5892 23.5775 14.703C23.8741 13.5457 24.0749 12.4237 24.1797 11.3504C24.2369 10.7882 24.2454 10.4705 24.2605 10.3984C24.2624 10.3599 24.2643 10.3214 24.2662 10.2827C24.3444 8.90159 24.3723 7.35102 24.3742 6.23345C24.3779 5.53071 24.3658 5.09758 24.3658 5.09758C24.3658 4.16525 22.0156 1.92299 19.8038 1.23398C17.8887 0.637327 15.482 0.93311 12.8482 2.4537C10.5109 3.80315 8.33548 5.85876 6.51581 8.28474Z" fill="#D80000"/>
<path d="M6.56855 8.31481C3.40997 12.5258 1.32323 17.8614 1.32323 22.5461C1.32285 24.0895 1.14406 34.6846 14.8658 41.5711C21.7411 29.2502 22.4732 19.6946 23.6127 14.8027C23.9097 13.6474 24.1117 12.5292 24.2188 11.4613C24.2763 10.906 24.2861 10.5892 24.3022 10.5125C24.3042 10.4741 24.3063 10.4356 24.3083 10.3971C24.3918 9.02086 24.4235 7.47956 24.4272 6.3611C24.4322 5.65937 24.4201 5.22866 24.4201 5.22866C24.4201 4.2342 22.0997 1.98851 19.8986 1.28158C17.9772 0.66435 15.5547 0.95162 12.901 2.4839C10.5637 3.83322 8.38823 5.88883 6.56855 8.31481Z" fill="#D90000"/>
<path d="M6.62078 8.34489C3.4622 12.5559 1.37546 17.8913 1.37546 22.5759C1.37507 24.0802 1.18179 34.6515 14.8658 41.5711C21.711 29.3041 22.499 19.7999 23.6474 14.9024C23.9448 13.7492 24.148 12.6349 24.2575 11.5722C24.3152 11.0237 24.3262 10.7081 24.3434 10.6264C24.3455 10.5882 24.3478 10.5498 24.3498 10.5114C24.4387 9.14 24.4721 7.60797 24.4796 6.48862C24.4843 5.78779 24.4737 5.35962 24.4737 5.35962C24.4737 4.30303 22.1832 2.05378 19.9929 1.32906C18.0651 0.691123 15.6269 0.970008 12.953 2.51385C10.6159 3.86317 8.44045 5.91891 6.62078 8.34489Z" fill="#DA0000"/>
<path d="M6.67215 8.37484C3.51358 12.5858 1.42683 17.921 1.42683 22.6056C1.42645 24.0707 1.21953 34.6182 14.8658 41.5711C21.681 29.3578 22.5241 19.9052 23.6812 15.0021C23.979 13.8509 24.1835 12.7404 24.2953 11.683C24.3531 11.1413 24.3655 10.8267 24.3837 10.7403C24.386 10.7022 24.3884 10.664 24.3905 10.6257C24.4847 9.25914 24.5218 7.73639 24.5312 6.61615C24.537 5.91621 24.5266 5.49057 24.5266 5.49057C24.5266 4.37186 22.2659 2.11893 20.0863 1.37642C18.1523 0.717641 15.6982 0.988394 13.0044 2.54367C10.6674 3.89324 8.49195 5.94886 6.67215 8.37484Z" fill="#DB0000"/>
<path d="M6.72466 8.40495C3.56609 12.6159 1.47934 17.9508 1.47934 22.6356C1.47883 24.0615 1.25713 34.585 14.8658 41.5711C21.651 29.4117 22.5503 20.0107 23.7163 15.1021C24.0145 13.9529 24.2201 12.8464 24.3343 11.7941C24.3924 11.2594 24.4061 10.9458 24.4253 10.8547C24.4277 10.8167 24.4302 10.7786 24.4325 10.7403C24.532 9.37857 24.5728 7.8651 24.5841 6.74397C24.5912 6.04504 24.5808 5.62182 24.5808 5.62182C24.5808 4.44098 22.35 2.1841 20.181 1.42419C18.2408 0.744449 15.7709 1.00707 13.0571 2.57391C10.7199 3.92335 8.54434 5.97897 6.72466 8.40495Z" fill="#DC0000"/>
<path d="M6.77717 8.435C3.61859 12.646 1.53185 17.9807 1.53185 22.6654C1.53134 24.052 1.29474 34.5518 14.8658 41.5711C21.6209 29.4655 22.5765 20.1161 23.7513 15.2018C24.0499 14.0546 24.2567 12.9519 24.3732 11.905C24.4315 11.3771 24.4465 11.0646 24.4667 10.9686C24.4694 10.9307 24.4719 10.8927 24.4743 10.8546C24.5792 9.49768 24.6235 7.99349 24.6367 6.87147C24.645 6.17343 24.6347 5.75275 24.6347 5.75275C24.6347 4.50978 22.4338 2.24871 20.2756 1.47165C18.3291 0.770814 15.8434 1.02543 13.1096 2.60383C10.7724 3.95328 8.59684 6.00902 6.77717 8.435Z" fill="#DD0000"/>
<path d="M6.82968 8.46516C3.6711 12.6761 1.58436 18.0106 1.58436 22.6953C1.58385 24.0428 1.33248 34.5186 14.8658 41.5711C21.591 29.5193 22.6026 20.2217 23.7863 15.3016C24.0852 14.1564 24.2932 13.0577 24.4121 12.016C24.4707 11.4949 24.487 11.1835 24.5082 11.0827C24.511 11.0449 24.5136 11.007 24.5162 10.9692C24.6263 9.61704 24.6744 8.12212 24.6895 6.99921C24.6989 6.30206 24.6887 5.88392 24.6887 5.88392C24.6887 4.57869 22.5179 2.31356 20.3701 1.51922C18.4174 0.797041 15.9159 1.04403 13.1621 2.634C10.8249 3.98357 8.64936 6.03918 6.82968 8.46516Z" fill="#DE0000"/>
<path d="M6.88094 8.49525C3.72236 12.7062 1.63562 18.0405 1.63562 22.7251C1.63511 24.0335 1.37021 34.4854 14.8658 41.5711C21.561 29.5731 22.6276 20.327 23.82 15.4014C24.1193 14.2584 24.3286 13.1634 24.4498 12.127C24.5086 11.6128 24.5262 11.3025 24.5484 11.1968C24.5513 11.1591 24.5541 11.1213 24.5568 11.0836C24.6721 9.73632 24.724 8.25054 24.7409 7.12687C24.7514 6.43074 24.7414 6.01501 24.7414 6.01501C24.7414 4.64765 22.6005 2.37808 20.4633 1.56683C18.5045 0.823311 15.9869 1.06255 13.2131 2.66408C10.8762 4.01365 8.70062 6.06927 6.88094 8.49525Z" fill="#DF0000"/>
<path d="M6.93339 8.52535C3.77481 12.7363 1.68807 18.0703 1.68807 22.755C1.68756 24.0241 1.40795 34.4522 14.8658 41.5711C21.5309 29.6269 22.6537 20.4324 23.8549 15.5012C24.1547 14.3602 24.365 13.2691 24.4888 12.2379C24.5477 11.7307 24.5667 11.4213 24.5899 11.3109C24.593 11.2733 24.5959 11.2357 24.5988 11.1981C24.7195 9.85561 24.775 8.37911 24.7938 7.25455C24.8055 6.55931 24.7956 6.14612 24.7956 6.14612C24.7956 4.71663 22.6849 2.44248 20.5582 1.61447C18.5932 0.849474 16.0597 1.08122 13.2659 2.69418C10.9286 4.04362 8.75306 6.09937 6.93339 8.52535Z" fill="#E00000"/>
<path d="M6.98512 8.55526C3.82654 12.7662 1.7398 18.1 1.7398 22.7846C1.73929 24.0146 1.44569 34.4189 14.8658 41.5711C21.5009 29.6807 22.679 20.5375 23.8891 15.6007C24.1893 14.4618 24.4032 13.3747 24.5269 12.3486C24.5873 11.8484 24.6063 11.5399 24.6306 11.4248C24.6338 11.3873 24.6368 11.3498 24.6399 11.3123C24.7659 9.97472 24.8251 8.50749 24.8458 7.38217C24.8585 6.68781 24.8489 6.27717 24.8489 6.27717C24.8489 4.78555 22.7682 2.5067 20.652 1.66204C18.681 0.875322 16.1315 1.0997 13.3176 2.72422C10.9802 4.07367 8.80479 6.12928 6.98512 8.55526Z" fill="#E10000"/>
<path d="M7.03759 8.58539C3.87902 12.7964 1.79227 18.1299 1.79227 22.8146C1.79164 24.0055 1.48329 34.3858 14.8658 41.5711C21.4709 29.7346 22.7052 20.6431 23.924 15.7007C24.2246 14.5638 24.44 13.4807 24.5658 12.4598C24.6265 11.9664 24.6467 11.6591 24.672 11.539C24.6753 11.5017 24.6785 11.4643 24.6817 11.4268C24.813 10.094 24.8758 8.63609 24.8984 7.50988C24.9123 6.81641 24.9027 6.40831 24.9027 6.40831C24.9027 4.85456 22.8523 2.57076 20.7465 1.70958C18.7694 0.901133 16.2039 1.11814 13.3701 2.75435C11.0327 4.1038 8.85727 6.15941 7.03759 8.58539Z" fill="#E20000"/>
<path d="M7.08901 8.61545C3.93043 12.8264 1.84368 18.1598 1.84368 22.8444C1.84305 23.996 1.52103 34.3526 14.8658 41.5711C21.4408 29.7883 22.7302 20.7485 23.9579 15.8004C24.2589 14.6655 24.4759 13.5863 24.6036 12.5707C24.6647 12.0842 24.6861 11.7778 24.7124 11.6531C24.7158 11.6158 24.7191 11.5786 24.7224 11.5413C24.8591 10.2133 24.9256 8.76462 24.9501 7.63751C24.9651 6.94507 24.9557 6.53926 24.9557 6.53926C24.9557 4.92325 22.9355 2.63461 20.84 1.75705C18.8569 0.92662 16.2753 1.13664 13.4215 2.78429C11.0841 4.13373 8.90868 6.18947 7.08901 8.61545Z" fill="#E30000"/>
<path d="M7.14182 8.64545C3.98324 12.8564 1.8965 18.1895 1.8965 22.8742C1.89587 23.9867 1.55876 34.3193 14.8658 41.5711C21.4108 29.8422 22.7567 20.8539 23.9932 15.9001C24.2946 14.7673 24.5131 13.6921 24.6428 12.6816C24.7043 12.2021 24.7268 11.8968 24.7541 11.7672C24.7577 11.7301 24.7611 11.6929 24.7645 11.6558C24.9066 10.3326 24.9767 8.89321 25.003 7.76522C25.0192 7.07366 25.0099 6.67039 25.0099 6.67039C25.0099 4.99225 23.0201 2.69841 20.9347 1.80471C18.9458 0.952171 16.3479 1.1552 13.4742 2.81441C11.1371 4.16386 8.96162 6.21947 7.14182 8.64545Z" fill="#E40000"/>
<path d="M7.19431 8.67559C4.03573 12.8866 1.94899 18.2194 1.94899 22.9041C1.94835 23.9774 1.59637 34.2862 14.8658 41.5711C21.3808 29.8959 22.7829 20.9594 24.0283 16C24.33 14.8692 24.5502 13.7979 24.6818 12.7927C24.7437 12.32 24.7673 12.0157 24.7957 11.8813C24.7994 11.8443 24.8029 11.8072 24.8065 11.7703C24.9539 10.4519 25.0276 9.02169 25.0559 7.89293C25.0732 7.20227 25.064 6.80154 25.064 6.80154C25.064 5.06127 23.1046 2.76221 21.0295 1.85238C19.0348 0.977733 16.4208 1.17378 13.5268 2.84455C11.1895 4.19399 9.01411 6.24961 7.19431 8.67559Z" fill="#E40000"/>
<path d="M7.24558 8.70584C4.08701 12.9168 2.00026 18.2494 2.00026 22.934C1.99963 23.9681 1.63411 34.253 14.8658 41.5711C21.3507 29.9498 22.8079 21.0648 24.062 16.0999C24.3642 14.9712 24.5859 13.9038 24.7195 12.9037C24.7818 12.4379 24.8066 12.1347 24.8359 11.9955C24.8397 11.9586 24.8434 11.9217 24.8471 11.8849C24.9998 10.5714 25.0772 9.1504 25.1073 8.02076C25.1257 7.33098 25.1168 6.93279 25.1168 6.93279C25.1168 5.13039 23.1878 2.82588 21.1229 1.90003C19.1223 1.00303 16.492 1.19246 13.5781 2.87467C11.2408 4.22411 9.06526 6.27986 7.24558 8.70584Z" fill="#E50000"/>
<path d="M7.29717 8.73577C4.13859 12.9467 2.05185 18.2791 2.05185 22.9637C2.05109 23.9587 1.67171 34.2197 14.8658 41.5711C21.3207 30.0035 22.833 21.1701 24.0961 16.1995C24.3986 15.0729 24.6218 14.0093 24.7575 13.0145C24.8202 12.5555 24.8462 12.2534 24.8764 12.1093C24.8804 12.0725 24.8842 12.0358 24.888 11.9989C25.0459 10.6903 25.127 9.27855 25.1591 8.14802C25.1787 7.45925 25.1699 7.06348 25.1699 7.06348C25.1699 5.19895 23.2714 2.88897 21.2165 1.94724C19.2102 1.02775 16.5635 1.21058 13.6297 2.90447C11.2924 4.25418 9.11685 6.30979 7.29717 8.73577Z" fill="#E60000"/>
<path d="M7.34969 8.76582C4.19111 12.9768 2.10436 18.309 2.10436 22.9936C2.1036 23.9495 1.70945 34.1866 14.8658 41.5711C21.2907 30.0574 22.8592 21.2756 24.1311 16.2994C24.4339 15.1748 24.6586 14.1151 24.7964 13.1256C24.8593 12.6736 24.8866 12.3724 24.9179 12.2236C24.922 12.1869 24.9259 12.1503 24.9298 12.1136C25.0931 10.8097 25.1779 9.40732 25.2118 8.27589C25.2325 7.58802 25.2238 7.19479 25.2238 7.19479C25.2238 5.26813 23.3559 2.95244 21.3111 1.99508C19.2992 1.0531 16.636 1.22932 13.6822 2.93478C11.3449 4.28422 9.16936 6.33984 7.34969 8.76582Z" fill="#E70000"/>
<path d="M7.40221 8.79589C4.24363 13.0069 2.15689 18.3388 2.15689 23.0235C2.15613 23.94 1.74718 34.1534 14.8658 41.5711C21.2606 30.1113 22.8853 21.3809 24.1659 16.3991C24.4692 15.2766 24.6954 14.2207 24.8352 13.2364C24.8985 12.7914 24.927 12.4913 24.9592 12.3377C24.9634 12.3011 24.9675 12.2645 24.9716 12.228C25.1402 10.929 25.2285 9.53586 25.2644 8.40355C25.2863 7.71656 25.2778 7.32587 25.2778 7.32587C25.2778 5.33696 23.4404 3.01554 21.4055 2.04256C19.388 1.07783 16.7085 1.24783 13.7346 2.96472C11.3974 4.31417 9.22189 6.36991 7.40221 8.79589Z" fill="#E80000"/>
<path d="M7.45403 8.82593C4.29545 13.0369 2.20871 18.3686 2.20871 23.0532C2.20794 23.9307 1.78492 34.1201 14.8658 41.5711C21.2306 30.165 22.9109 21.4863 24.2003 16.4988C24.504 15.3783 24.7315 14.3264 24.8736 13.3473C24.9371 12.9091 24.9669 12.61 25.0001 12.4516C25.0045 12.4151 25.0086 12.3786 25.0128 12.3423C25.1868 11.0481 25.2788 9.66411 25.3166 8.53103C25.3395 7.84494 25.3312 7.45679 25.3312 7.45679C25.3312 5.40574 23.5245 3.07848 21.4995 2.09C19.4764 1.10253 16.7803 1.26618 13.7866 2.99463C11.4491 4.34433 9.2737 6.39995 7.45403 8.82593Z" fill="#E90000"/>
<path d="M7.50657 8.85605C4.34787 13.067 2.26125 18.3985 2.26125 23.0831V23.0841C2.26049 23.9224 1.82265 34.0869 14.8658 41.5711C21.2006 30.2189 22.9371 21.5919 24.2353 16.5988C24.5394 15.4803 24.7683 14.4324 24.9125 13.4585C24.9764 13.0271 25.0073 12.7291 25.0416 12.5659C25.0461 12.5296 25.0504 12.4932 25.0547 12.457C25.234 11.1677 25.3295 9.79295 25.3693 8.65899C25.3933 7.97391 25.3852 7.58817 25.3852 7.58817C25.3852 5.475 23.6093 3.14177 21.5941 2.13791C19.5657 1.12745 16.8528 1.28499 13.839 3.02513C11.5017 4.37433 9.32625 6.43007 7.50657 8.85605Z" fill="#EA0000"/>
<path d="M7.55794 8.88613C4.39924 13.0971 2.31262 18.4283 2.31262 23.1129V23.114C2.31173 23.913 1.86026 34.0538 14.8658 41.5711C21.1705 30.2726 22.962 21.6972 24.2692 16.6985C24.5736 15.582 24.8039 14.538 24.9503 13.5694C25.0145 13.145 25.0466 12.8479 25.0819 12.68C25.0865 12.6438 25.091 12.6076 25.0954 12.5713C25.28 11.2868 25.3791 9.92137 25.4209 8.78665C25.4461 8.10246 25.4381 7.71926 25.4381 7.71926C25.4381 5.54396 23.693 3.20463 21.6876 2.18553C19.6538 1.15194 16.9241 1.30364 13.8903 3.05522C11.553 4.40441 9.37761 6.46002 7.55794 8.88613Z" fill="#EB0000"/>
<path d="M7.61059 8.91621C4.45189 13.1272 2.36527 18.4581 2.36527 23.1428V23.1438C2.36438 23.9037 1.898 34.0205 14.8658 41.5711C21.1405 30.3265 22.9884 21.8026 24.3043 16.7982C24.6091 15.6838 24.8408 14.6437 24.9894 13.6802C25.0538 13.2627 25.0872 12.9667 25.1235 12.7939C25.1282 12.7578 25.1328 12.7217 25.1374 12.6857C25.3273 11.406 25.4301 10.0498 25.4737 8.91417C25.5 8.23087 25.4921 7.85022 25.4921 7.85022C25.4921 5.61279 23.778 3.26723 21.7823 2.23288C19.7432 1.17617 16.9969 1.3219 13.943 3.08504C11.6057 4.43461 9.43027 6.49022 7.61059 8.91621Z" fill="#EC0000"/>
<path d="M7.66216 8.94624C4.50345 13.1572 2.41684 18.488 2.41684 23.1727V23.1737C2.41595 23.8943 1.93561 33.9872 14.8658 41.5711C21.1106 30.3803 23.0137 21.9081 24.3383 16.8981C24.6435 15.7857 24.8765 14.7495 25.0273 13.7913C25.092 13.3807 25.1267 13.0858 25.164 12.9082C25.1689 12.8722 25.1736 12.8363 25.1783 12.8003C25.3734 11.5253 25.4799 10.1785 25.5255 9.04204C25.553 8.35963 25.5452 7.98139 25.5452 7.98139C25.5452 5.68183 23.8621 3.32992 21.8759 2.28058C19.8317 1.20049 17.0684 1.3405 13.9946 3.1152C11.6574 4.46452 9.48196 6.52026 7.66216 8.94624Z" fill="#ED0000"/>
<path d="M7.71476 8.9763C4.55605 13.1873 2.46943 18.5178 2.46943 23.2025V23.2035C2.46854 23.885 1.97334 33.9539 14.8658 41.5711C21.0804 30.4341 23.0399 22.0135 24.3734 16.9979C24.679 15.8876 24.9134 14.8552 25.0663 13.9023C25.1311 13.4986 25.1672 13.2047 25.2056 13.0222C25.2105 12.9863 25.2154 12.9504 25.2202 12.9147C25.4207 11.6446 25.5307 10.3069 25.5784 9.16967C25.6068 8.48828 25.5993 8.11245 25.5993 8.11245C25.5993 5.75063 23.9472 3.3925 21.9705 2.32817C19.9213 1.2247 17.1409 1.35912 14.0472 3.14538C11.71 4.49457 9.53456 6.55019 7.71476 8.9763Z" fill="#EE0000"/>
<path d="M7.76665 9.00626C4.60794 13.2172 2.52133 18.5476 2.52133 23.2322V23.2332C2.52044 23.8756 2.01108 33.9208 14.8658 41.5711C21.0505 30.4879 23.0654 22.1188 24.4077 17.0975C24.7137 15.9893 24.9493 14.9608 25.1048 14.0131C25.1698 13.6162 25.2072 13.3233 25.2466 13.1362C25.2516 13.1003 25.2566 13.0646 25.2616 13.0291C25.4674 11.7637 25.581 10.4354 25.6305 9.29722C25.6601 8.61671 25.6528 8.24343 25.6528 8.24343C25.6528 5.81948 24.0319 3.45487 22.0646 2.37567C20.0103 1.24869 17.2129 1.37752 14.099 3.17535C11.7619 4.52467 9.58632 6.58028 7.76665 9.00626Z" fill="#EF0000"/>
<path d="M7.81927 9.03648C4.66057 13.2475 2.57395 18.5775 2.57395 23.2622V23.2632C2.57306 23.8663 2.04869 33.8876 14.8658 41.5711C21.0205 30.5417 23.0917 22.2242 24.4428 17.1973C24.7492 16.0912 24.986 15.0665 25.1438 14.124C25.2091 13.7339 25.2477 13.4422 25.2881 13.2502C25.2933 13.2145 25.2984 13.179 25.3035 13.1435C25.5147 11.883 25.6319 10.5639 25.6834 9.42489C25.7141 8.74527 25.7069 8.37453 25.7069 8.37453C25.7069 5.88845 24.1172 3.51723 22.1593 2.42317C20.1001 1.27256 17.2855 1.39606 14.1517 3.20531C11.8145 4.55476 9.63895 6.6105 7.81927 9.03648Z" fill="#F00000"/>
<path d="M7.8705 9.06648C4.71179 13.2774 2.62518 18.6073 2.62518 23.2919V23.2929C2.62416 23.8569 2.08642 33.8543 14.8658 41.5711C20.9904 30.5955 23.1165 22.3296 24.4765 17.2971C24.7832 16.193 25.0212 15.1722 25.1814 14.2349C25.2469 13.8519 25.2869 13.561 25.3283 13.3642C25.3336 13.3287 25.3388 13.2932 25.3441 13.2578C25.5606 12.0021 25.6814 10.6923 25.7348 9.55233C25.7665 8.87361 25.7595 8.50541 25.7595 8.50541C25.7595 5.9572 24.2012 3.57937 22.2524 2.47057C20.1884 1.2962 17.3566 1.41436 14.2028 3.23518C11.8657 4.58475 9.69017 6.64037 7.8705 9.06648Z" fill="#F10000"/>
<path d="M7.92345 9.09654C4.76475 13.3075 2.67813 18.6371 2.67813 23.3217V23.3228C2.67711 23.8477 2.12415 33.8211 14.8658 41.5711C20.9604 30.6494 23.1432 22.435 24.5119 17.3969C24.819 16.2948 25.0582 15.2779 25.2208 14.3459C25.2865 13.9697 25.3278 13.68 25.3702 13.4784C25.3757 13.443 25.381 13.4076 25.3863 13.3723C25.6082 12.1215 25.7326 10.8208 25.788 9.68011C25.8209 9.0024 25.814 8.63661 25.814 8.63661C25.814 6.02627 24.2871 3.64171 22.3476 2.51829C20.2789 1.32004 17.4297 1.43299 14.2558 3.26537C11.9186 4.61495 9.74313 6.67056 7.92345 9.09654Z" fill="#F20000"/>
<path d="M7.9751 9.12667C4.8164 13.3376 2.72978 18.6671 2.72978 23.3517V23.3528C2.72876 23.8384 2.16189 33.788 14.8658 41.5711C20.9304 30.7031 23.1684 22.5406 24.5461 17.4968C24.8535 16.3967 25.0938 15.3837 25.2588 14.457C25.3247 14.0876 25.3673 13.799 25.4108 13.5926C25.4164 13.5573 25.422 13.522 25.4273 13.4869C25.6545 12.2409 25.7824 10.9495 25.8397 9.80794C25.8738 9.13112 25.8671 8.76787 25.8671 8.76787C25.8671 6.09541 24.3716 3.70398 22.4412 2.56596C20.3679 1.34369 17.5011 1.45169 14.3074 3.29563C11.9702 4.64495 9.79478 6.70069 7.9751 9.12667Z" fill="#F30000"/>
<path d="M8.02673 9.1567C4.86802 13.3677 2.78141 18.6968 2.78141 23.3815V23.3826C2.78039 23.8291 2.19963 33.7547 14.8658 41.5711C20.9003 30.757 23.1937 22.646 24.5802 17.5966C24.888 16.4985 25.1293 15.4894 25.2969 14.568C25.3628 14.2055 25.4069 13.9178 25.4514 13.7066C25.4571 13.6715 25.4628 13.6363 25.4684 13.6013C25.7009 12.3601 25.8324 11.078 25.8917 9.93554C25.9268 9.25961 25.9203 8.8989 25.9203 8.8989C25.9203 6.16418 24.4564 3.76603 22.535 2.61351C20.4571 1.36711 17.5728 1.47015 14.3591 3.32565C12.0218 4.67497 9.8464 6.73059 8.02673 9.1567Z" fill="#F40000"/>
<path d="M8.07951 9.18678C4.9208 13.3978 2.83419 18.7267 2.83419 23.4113V23.4124C2.83317 23.8198 2.23723 33.7215 14.8658 41.5711C20.8703 30.8107 23.2202 22.7513 24.6154 17.6963C24.9236 16.6003 25.1659 15.595 25.3361 14.6788C25.4021 14.3232 25.4476 14.0367 25.4931 13.8207C25.4989 13.7856 25.5048 13.7506 25.5105 13.7158C25.7482 12.4794 25.8834 11.2064 25.9448 10.0632C25.981 9.38816 25.9746 9.02999 25.9746 9.02999C25.9746 6.23314 24.5424 3.82813 22.6299 2.66113C20.5476 1.39059 17.6458 1.48867 14.4119 3.35574C12.0746 4.70518 9.89918 6.7608 8.07951 9.18678Z" fill="#F50000"/>
<path d="M8.13233 9.21679C4.97363 13.4278 2.88701 18.7564 2.88701 23.4411V23.4422C2.88587 23.8103 2.276 33.6883 14.8669 41.571C20.8413 30.8645 23.2466 22.8566 24.6507 17.7959C24.9593 16.702 25.2026 15.7005 25.3753 14.7897C25.4414 14.4409 25.4884 14.1554 25.5349 13.9346C25.5408 13.8995 25.5468 13.8647 25.5527 13.8299C25.7957 12.5983 25.9345 11.3347 25.9977 10.1907C26.0351 9.51651 26.0289 9.16088 26.0289 9.16088C26.0289 6.3019 24.6283 3.8899 22.7247 2.70854C20.6382 1.41373 17.7185 1.50711 14.4646 3.38562C12.1276 4.73506 9.95213 6.79081 8.13233 9.21679Z" fill="#F60000"/>
<path d="M8.18309 9.24703C5.02439 13.458 2.93777 18.7864 2.93777 23.471V23.4722C2.93663 23.8011 2.31258 33.6551 14.8658 41.5711C20.8102 30.9183 23.2712 22.9621 24.684 17.8959C24.993 16.8041 25.2372 15.8064 25.4126 14.9008C25.4788 14.5589 25.5272 14.2746 25.5747 14.0489C25.5808 14.014 25.5869 13.9793 25.5929 13.9446C25.8413 12.7179 25.9836 11.4635 26.0489 10.3186C26.0872 9.64535 26.0813 9.29227 26.0813 9.29227C26.0813 6.37115 24.7126 3.95203 22.8177 2.75632C20.7271 1.43712 17.7894 1.5258 14.5156 3.41599C12.1783 4.76531 10.0029 6.82093 8.18309 9.24703Z" fill="#F70000"/>
<path d="M8.23584 9.27703C5.07714 13.488 2.99052 18.8162 2.99052 23.5008V23.5019C2.98938 23.7917 2.35135 33.6218 14.8669 41.571C20.7812 30.9721 23.2975 23.0674 24.7193 17.9955C25.0286 16.9058 25.2737 15.9118 25.4517 15.0116C25.5181 14.6766 25.568 14.3933 25.6164 14.1629C25.6226 14.1281 25.6289 14.0935 25.635 14.059C25.8887 12.8371 26.0345 11.5918 26.1017 10.4462C26.1413 9.77394 26.1354 9.42327 26.1354 9.42327C26.1354 6.44003 24.7987 4.0138 22.9124 2.80386C20.8177 1.46013 17.862 1.54424 14.5682 3.44599C12.2311 4.79543 10.0556 6.85105 8.23584 9.27703Z" fill="#F80000"/>
<path d="M8.28747 9.30714C5.12877 13.5181 3.04215 18.8461 3.04215 23.5308V23.532C3.04101 23.7826 2.38805 33.5888 14.8658 41.5711C20.7502 31.0259 23.3229 23.1731 24.7534 18.0955C25.0631 17.0078 25.309 16.0177 25.4898 15.1228C25.5561 14.7946 25.6076 14.5123 25.657 14.2771C25.6633 14.2425 25.6697 14.2079 25.6759 14.1736C25.935 12.9565 26.0844 11.7205 26.1536 10.574C26.1942 9.90265 26.1886 9.55439 26.1886 9.55439C26.1886 6.50902 24.8837 4.07555 23.0061 2.8515C20.9073 1.48312 17.9337 1.56291 14.6199 3.4761C12.2827 4.82542 10.1071 6.88116 8.28747 9.30714Z" fill="#F90000"/>
<path d="M8.33924 9.33719C5.18054 13.5482 3.09392 18.8759 3.09392 23.5606V23.5618C3.09278 23.7733 2.42566 33.5555 14.8658 41.5711C20.7201 31.0798 23.3482 23.2784 24.7876 18.1952C25.0977 17.1095 25.3444 16.1232 25.528 15.2337C25.5943 14.9122 25.6473 14.6312 25.6977 14.3912C25.7042 14.3566 25.7107 14.3222 25.717 14.288C25.9814 13.0758 26.1343 11.8491 26.2055 10.7016C26.2472 10.0312 26.2419 9.68545 26.2419 9.68545C26.2419 6.57783 24.9692 4.13736 23.1001 2.89896C20.9974 1.50593 18.0056 1.58128 14.6716 3.50603C12.3345 4.85547 10.1589 6.91109 8.33924 9.33719Z" fill="#FA0000"/>
<path d="M8.39205 9.36717C5.23334 13.5781 3.14673 18.9057 3.14673 23.5903V23.5916C3.14558 23.7639 2.46443 33.5222 14.8669 41.571C20.6912 31.1334 23.3747 23.3837 24.8229 18.2949C25.1335 17.2113 25.3806 16.2286 25.5672 15.3446C25.6335 15.03 25.688 14.75 25.7394 14.5053C25.746 14.4708 25.7527 14.4365 25.7591 14.4023C26.0289 13.1949 26.1853 11.9774 26.2586 10.8292C26.3013 10.1596 26.2962 9.81644 26.2962 9.81644C26.2962 6.64668 25.0556 4.19885 23.1949 2.94647C21.0885 1.52867 18.0783 1.59969 14.7244 3.53613C12.3872 4.88558 10.2117 6.94119 8.39205 9.36717Z" fill="#FB0000"/>
<path d="M8.44392 9.39723C5.28522 13.6082 3.1986 18.9355 3.1986 23.6201V23.6214C3.19733 23.7544 2.50216 33.489 14.8669 41.571C20.6612 31.1873 23.4002 23.4891 24.8572 18.3946C25.1682 17.313 25.416 16.3342 25.6054 15.4554C25.6718 15.1477 25.7278 14.8688 25.7803 14.6192C25.787 14.5849 25.7937 14.5507 25.8003 14.5166C26.0753 13.3141 26.2354 12.1058 26.3107 10.9567C26.3546 10.288 26.3496 9.94737 26.3496 9.94737C26.3496 6.71548 25.1413 4.26041 23.2889 2.99393C21.1789 1.55135 18.1501 1.61818 14.7763 3.56606C12.439 4.9155 10.2636 6.97125 8.44392 9.39723Z" fill="#FC0000"/>
<path d="M8.49685 9.4274C5.33814 13.6384 3.25152 18.9654 3.25152 23.65V23.6513C3.25025 23.7452 2.53989 33.4557 14.8669 41.571C20.6311 31.2412 23.4268 23.5945 24.8926 18.4944C25.204 17.4148 25.4506 16.4394 25.6448 15.5664C25.7106 15.2654 25.7686 14.9877 25.8221 14.7333C25.829 14.6991 25.8359 14.6651 25.8426 14.6312C26.1229 13.4334 26.2865 12.2344 26.3638 11.0844C26.4086 10.4166 26.4039 10.0786 26.4039 10.0786C26.4039 6.78454 25.2279 4.32209 23.3838 3.04164C21.2703 1.57403 18.223 1.6368 14.8292 3.59623C12.492 4.94568 10.3165 7.00129 8.49685 9.4274Z" fill="#FD0000"/>
<path d="M8.54774 9.45732C5.38903 13.6683 3.30242 18.9952 3.30242 23.6797V23.681C3.30114 23.7357 2.5766 33.4227 14.8658 41.5711C20.6 31.2951 23.4512 23.6998 24.926 18.5941C25.2378 17.5165 25.4856 16.5449 25.6821 15.6773C25.7481 15.3831 25.8075 15.1064 25.862 14.8472C25.869 14.8131 25.8759 14.7791 25.8828 14.7455C26.1684 13.5525 26.3355 12.3627 26.4149 11.2119C26.4609 10.5452 26.4563 10.2095 26.4563 10.2095C26.4563 6.85334 25.3146 4.38085 23.4768 3.08896C21.362 1.59328 18.294 1.65515 14.8801 3.62602C12.5428 4.97572 10.3674 7.03134 8.54774 9.45732Z" fill="#FE0000"/>
<path d="M14.9318 3.65628C12.5946 5.00572 10.4191 7.06134 8.5994 9.48745C5.4407 13.6984 3.35408 19.0251 3.35408 23.7097V23.7109C3.35281 23.7264 2.6142 33.3895 14.8658 41.5711C22.2215 28.3893 24.9255 19.6617 25.9239 14.8599C26.2149 13.6719 26.3973 12.492 26.4668 11.3396C26.5207 10.6743 26.5095 10.3406 26.5095 10.3406C26.5095 2.95735 21.3261 -0.035295 14.9318 3.65628Z" fill="url(#paint0_linear_71_974)"/>
<path d="M14.9317 6.10125C9.70681 9.11791 5.47119 16.4542 5.47119 22.4874C5.47119 28.5205 9.70681 30.966 14.9317 27.9494C20.1565 24.9328 24.3922 17.5965 24.3922 11.5633C24.3922 5.53014 20.1565 3.08472 14.9317 6.10125Z" fill="white"/>
<path d="M14.9323 6.97449C10.125 9.75 6.22803 16.4999 6.22803 22.0508C6.22803 27.6018 10.125 29.8517 14.9323 27.0763C19.7395 24.3008 23.6365 17.5509 23.6365 11.9999C23.6365 6.44887 19.7395 4.19911 14.9323 6.97449Z" fill="#244EAC"/>
<path d="M18.987 8.55135C18.2095 8.19242 16.9852 8.45059 15.3138 9.41545C13.9535 10.2009 12.8847 10.9527 12.0684 11.5808V26.5264L13.7592 25.5502V19.4913C14.1479 19.3792 14.6143 19.1323 15.1194 18.8406C16.7714 17.8869 18.229 16.4843 19.1231 14.8685C19.7836 13.7016 20.1334 12.4224 20.1334 11.0537C20.1334 9.70742 19.7061 8.85425 18.987 8.55135ZM15.1585 17.2472C14.595 17.5725 14.1284 17.7971 13.7592 17.898V12.0187C14.0505 11.7605 14.6143 11.3676 15.3527 10.9414C17.2184 9.8642 18.4427 10.1223 18.4427 12.1196C18.4427 14.2065 17.199 16.069 15.1585 17.2472Z" fill="white"/>
<defs>
<linearGradient id="paint0_linear_71_974" x1="3.77482" y1="21.8231" x2="27.3426" y2="21.8231" gradientUnits="userSpaceOnUse">
<stop stop-color="#DA062D"/>
<stop offset="1" stop-color="#F09BAB"/>
</linearGradient>
</defs>
</svg>
