<svg width="66" height="66" viewBox="0 0 66 66" fill="none" xmlns="http://www.w3.org/2000/svg">
<path d="M49.8797 34.5137L13.7842 55.3535C12.9543 55.8327 11.9167 55.2337 11.9167 54.2753V27.9933C11.9167 26.535 12.6947 25.1876 13.9575 24.4586L50.0529 3.61881C50.883 3.13955 51.9204 3.73863 51.9204 4.69704V30.9791C51.9204 32.4373 51.1426 33.7847 49.8797 34.5137Z" fill="#E9E5F6"/>
<path opacity="0.5" d="M11.9167 37.8928L51.9204 14.7966V17.0843L11.9167 40.1805V37.8928Z" fill="#FF4757"/>
<path opacity="0.1" d="M11.9167 40.1805L35.4605 41.7695L46.3076 35.5069L51.9204 17.0843V14.7966L11.9167 37.8928V40.1805Z" fill="#FF4757"/>
<path d="M43.4404 54.3724L40.8644 52.8851V59.8975C40.8644 60.436 41.1517 60.9336 41.618 61.2028L43.4404 62.255C44.1277 62.6519 44.9754 62.6478 45.659 62.2446L52.6379 58.128C53.0975 57.857 53.3795 57.3633 53.3795 56.8298V49.808L45.659 54.362C44.9754 54.7652 44.1278 54.7691 43.4404 54.3724Z" fill="url(#paint0_linear_460_2018)"/>
<path d="M50.8688 36.377L44.2579 32.5602L35.4327 37.656L45.2581 55.46L54.0833 50.3642V42.519C54.0833 40.1519 52.6442 37.402 50.8688 36.377Z" fill="url(#paint1_linear_460_2018)"/>
<path d="M35.4328 37.6558V44.3956L40.2034 47.1499V52.5413L45.2582 55.4597V47.6145C45.2582 45.2472 43.8189 42.4974 42.0436 41.4724L35.4328 37.6558Z" fill="url(#paint2_linear_460_2018)"/>
<path d="M39.2424 37.6558L44.7581 34.4715L48.6043 36.6921L43.0886 39.8765L39.2424 37.6558Z" fill="#C5BAEB"/>
<defs>
<linearGradient id="paint0_linear_460_2018" x1="42.8002" y1="56.1789" x2="47.1695" y2="56.1789" gradientUnits="userSpaceOnUse">
<stop stop-color="#43386B"/>
<stop offset="1" stop-color="#7662BD"/>
</linearGradient>
<linearGradient id="paint1_linear_460_2018" x1="47.0496" y1="43.4705" x2="44.0901" y2="38.3444" gradientUnits="userSpaceOnUse">
<stop stop-color="#D5C9F1"/>
<stop offset="1" stop-color="#F2EFFA"/>
</linearGradient>
<linearGradient id="paint2_linear_460_2018" x1="35.4328" y1="46.5579" x2="45.2581" y2="46.5579" gradientUnits="userSpaceOnUse">
<stop stop-color="#D5C9F1"/>
<stop offset="1" stop-color="#E7E3F3"/>
</linearGradient>
</defs>
</svg>
