<svg width="16" height="16" viewBox="0 0 16 16" fill="none" xmlns="http://www.w3.org/2000/svg">
<path d="M7.33333 7.33333H8.66667C9.03486 7.33333 9.33333 7.03486 9.33333 6.66667C9.33333 6.29848 9.03486 6 8.66667 6H7.33333V7.33333Z" fill="white"/>
<path fill-rule="evenodd" clip-rule="evenodd" d="M2 6.26667C2 4.77319 2 4.02646 2.29065 3.45603C2.54631 2.95426 2.95426 2.54631 3.45603 2.29065C4.02646 2 4.77319 2 6.26667 2H9.73333C11.2268 2 11.9735 2 12.544 2.29065C13.0457 2.54631 13.4537 2.95426 13.7094 3.45603C14 4.02646 14 4.77319 14 6.26667V9.73333C14 11.2268 14 11.9735 13.7094 12.544C13.4537 13.0457 13.0457 13.4537 12.544 13.7094C11.9735 14 11.2268 14 9.73333 14H6.26667C4.77319 14 4.02646 14 3.45603 13.7094C2.95426 13.4537 2.54631 13.0457 2.29065 12.544C2 11.9735 2 11.2268 2 9.73333V6.26667ZM6 5.33333C6 4.96514 6.29848 4.66667 6.66667 4.66667H8.66667C9.77124 4.66667 10.6667 5.5621 10.6667 6.66667C10.6667 7.77124 9.77124 8.66667 8.66667 8.66667H7.33333V10.6667C7.33333 11.0349 7.03486 11.3333 6.66667 11.3333C6.29848 11.3333 6 11.0349 6 10.6667V5.33333Z" fill="white"/>
</svg>
