<svg width="20" height="20" viewBox="0 0 20 20" fill="none" xmlns="http://www.w3.org/2000/svg">
<path d="M9.16667 9.16667H10.8333C11.2936 9.16667 11.6667 8.79357 11.6667 8.33333C11.6667 7.8731 11.2936 7.5 10.8333 7.5H9.16667V9.16667Z" fill="#F97867"/>
<path fill-rule="evenodd" clip-rule="evenodd" d="M2.5 7.83333C2.5 5.96649 2.5 5.03307 2.86331 4.32003C3.18289 3.69282 3.69282 3.18289 4.32003 2.86331C5.03307 2.5 5.96649 2.5 7.83333 2.5H12.1667C14.0335 2.5 14.9669 2.5 15.68 2.86331C16.3072 3.18289 16.8171 3.69282 17.1367 4.32003C17.5 5.03307 17.5 5.96649 17.5 7.83333V12.1667C17.5 14.0335 17.5 14.9669 17.1367 15.68C16.8171 16.3072 16.3072 16.8171 15.68 17.1367C14.9669 17.5 14.0335 17.5 12.1667 17.5H7.83333C5.96649 17.5 5.03307 17.5 4.32003 17.1367C3.69282 16.8171 3.18289 16.3072 2.86331 15.68C2.5 14.9669 2.5 14.0335 2.5 12.1667V7.83333ZM7.5 6.66667C7.5 6.20643 7.8731 5.83333 8.33333 5.83333H10.8333C12.214 5.83333 13.3333 6.95262 13.3333 8.33333C13.3333 9.71405 12.214 10.8333 10.8333 10.8333H9.16667V13.3333C9.16667 13.7936 8.79357 14.1667 8.33333 14.1667C7.8731 14.1667 7.5 13.7936 7.5 13.3333V6.66667Z" fill="#F97867"/>
</svg>
